{"title":"2.Fast.2.Furious.[2003].DvdRip.[Eng-Hindi].Dual.Audio-ahl07","uid":5381911,"size":835263777,"categoryP":"video","categoryS":"movies","magnet":"?xt=urn:btih:0fcb00bcd880551582edffa61ad372f7718e5e49&amp;dn=2.Fast.2.Furious.%5B2003%5D.DvdRip.%5BEng-Hindi%5D.Dual.Audio-ahl07&amp;tr=udp%3A%2F%2Ftracker.openbittorrent.com%3A80&amp;tr=udp%3A%2F%2Fopen.demonii.com%3A1337&amp;tr=udp%3A%2F%2Ftracker.coppersurfer.tk%3A6969&amp;tr=udp%3A%2F%2Fexodus.desync.com%3A6969","seeders":1,"leechers":1,"uploader":"ahl07","files":-1,"time":1266770957,"description":"HD DESI ROCKERS GROUP RELEASES\n\n\nINFO:\n\nTitle..................: 2 Fast 2 Furious\nYear...................: 2003\nGenre..................: Action | Racing\nDirecter...............: John Singleton\nRun time...............: 1h 47mn 41sec\nsize ..................: 796 MB\nLanguages..............: English.Hindi\n\n___________________________________________________________________________\n\nVideo\n\nFormat                           : MKV\nDuration                         : 1h 47mn 41sec\nDisplay aspect ratio             : 16:9\nResolution                       : 648*276\nStream size                      : 607 MiB \n_______________________________________________________________________________\n\n\nAudio #1 :English\nID                               : 1\nFormat                           : MPEG 1 Layer 3\nDuration                         : 1h 47mn 41sec\nBit rate mode                    : Constant\nBit rate                         : 96 Kbps\nChannel(s)                       : 2 channels\nChannel positions                : Front: L R\nSampling rate                    : 48.0 KHz\nStream size                      : 87.8 MiB \n\n____________________________________________________________________________\n\n\nAudio #2 :Hindi\nID                               : 2\nFormat                           : MPEG 1 Layer 3 \nDuration                         : 1h 47mn 41sec\nBit rate mode                    : Constant\nBit rate                         : 128 Kbps\nChannel(s)                       : 2 channels\nChannel positions                : Front: L R\nSampling rate                    : 48 Hz\nStream size                      : 98.6 MiB\n__________________________________________________________________________\n\n\n\nSeeding at 2:00 AM ISt - 8:00 AM ISt\nPlease wait during seeding\nPlz seed after download\nThankyou...\n\n","torrent":{"xt":"urn:btih:0fcb00bcd880551582edffa61ad372f7718e5e49","amp;dn":"2.Fast.2.Furious.%5B2003%5D.DvdRip.%5BEng-Hindi%5D.Dual.Audio-ahl07","amp;tr":["udp%3A%2F%2Ftracker.openbittorrent.com%3A80","udp%3A%2F%2Fopen.demonii.com%3A1337","udp%3A%2F%2Ftracker.coppersurfer.tk%3A6969","udp%3A%2F%2Fexodus.desync.com%3A6969"],"infoHash":"0fcb00bcd880551582edffa61ad372f7718e5e49","infoHashBuffer":{"type":"Buffer","data":[15,203,0,188,216,128,85,21,130,237,255,166,26,211,114,247,113,142,94,73]},"announce":[],"urlList":[]}}